<?xml version="1.0" encoding="UTF-8"?>
<svg xmlns="http://www.w3.org/2000/svg" xmlns:xlink="http://www.w3.org/1999/xlink" viewBox="0 0 66.38 107.98">
  <defs>
    <style>
      .cls-1 {
        fill: #ff8ac9;
      }

      .cls-2 {
        fill: url(#linear-gradient-3);
      }

      .cls-3 {
        fill: url(#linear-gradient-2);
      }

      .cls-4 {
        fill: #ababab;
      }

      .cls-5, .cls-6, .cls-7, .cls-8 {
        mix-blend-mode: overlay;
      }

      .cls-5, .cls-9 {
        fill: #fff;
      }

      .cls-10 {
        fill: url(#radial-gradient);
      }

      .cls-11 {
        fill: url(#linear-gradient);
      }

      .cls-12 {
        fill: #004713;
      }

      .cls-13 {
        isolation: isolate;
      }

      .cls-6 {
        fill: #525252;
      }

      .cls-8 {
        fill: #edffc2;
      }
    </style>
    <linearGradient id="linear-gradient" x1="35.87" y1="103.41" x2="36.21" y2="59.79" gradientUnits="userSpaceOnUse">
      <stop offset="0" stop-color="#87c734"/>
      <stop offset="1" stop-color="#2e8c48"/>
    </linearGradient>
    <radialGradient id="radial-gradient" cx="7.84" cy="-186.45" fx="7.84" fy="-186.45" r="50.27" gradientTransform="translate(12.76 215.02) rotate(6.23)" gradientUnits="userSpaceOnUse">
      <stop offset="0" stop-color="#d94e99"/>
      <stop offset="1" stop-color="#883160"/>
    </radialGradient>
    <linearGradient id="linear-gradient-2" x1="-4264.16" y1="1641.86" x2="-4250.05" y2="1670.26" gradientTransform="translate(-4279.35 1551.59) rotate(139.18) scale(1 -1)" xlink:href="#linear-gradient"/>
    <linearGradient id="linear-gradient-3" x1="-4284.74" y1="1652.14" x2="-4270.7" y2="1680.41" gradientTransform="translate(-4279.35 1551.59) rotate(139.18) scale(1 -1)" xlink:href="#linear-gradient"/>
  </defs>
  <g class="cls-13">
    <g id="Layer_2" data-name="Layer 2">
      <g id="Layer_1-2" data-name="Layer 1">
        <g>
          <g>
            <path class="cls-4" d="M32.33,80.19c-1.07,0-2.19-.18-3.32-.53-3.42-1.07-5.68-3.47-6.61-7-2.85-.25-5.19-1.49-6.96-3.69-1.73-2.15-2.46-4.6-2.17-7.31-3.47-1.06-5.77-3.44-6.71-6.98-.9-3.39-.22-6.46,1.97-9.01-1.78-1.58-2.89-3.63-3.25-6.06-.4-2.69.29-5.31,1.99-7.56.09-.12.19-.24.28-.36-2.06-1.76-3.72-4.07-5.14-7.14-.42-.9-.18-1.96.57-2.61.41-.35.92-.53,1.44-.53.43,0,.86.12,1.23.37,2.28,1.53,4.67,2.15,7,2.42-2.36-2.58-4.25-5.58-5.07-9.3-.2-.91.19-1.84.97-2.34.36-.23.77-.34,1.18-.34.48,0,.95.15,1.35.46.55.43,1.12.87,1.68,1.33,1.27,1.01,2.58,2.06,3.93,2.96.28.19.58.36.89.51-2.17-2.87-4.64-5.28-7.36-7.16-1.61-1.11-2.08-2.85-1.23-4.52.39-.76.88-1.64,1.63-2.34.57-.53,1.47-1.24,2.71-1.24,1.59,0,2.6,1.18,2.98,1.62,2.88,3.37,5.85,6.95,8.38,10.88.08-2.07-.14-4.09-.68-6.1-.25-.93.13-1.92.95-2.44.36-.23.78-.35,1.19-.35.51,0,1.01.17,1.42.52,4.07,3.41,7.11,6.81,9.37,10.52,1.76-3.41,2.16-7.15,2.29-10.77.04-1.06.83-1.94,1.87-2.11.11-.02.23-.03.34-.03.92,0,1.77.58,2.08,1.47,1.09,3.09,1.77,6.17,2.04,9.3.75-1.11,1.29-2.29,1.62-3.55.26-.99,1.16-1.66,2.14-1.66.18,0,.36.02.55.07l.35.09c1.12.29,1.84,1.39,1.63,2.54l-1.6,8.84s-.02.09-.03.14c1.35,1.35,2.35,3.16,2.92,5.37,3.3.49,5.84,2.27,7.4,5.22,1.51,2.86,1.62,5.85.32,8.77,2.4,2.25,3.59,5.32,3.24,8.53-.33,2.99-1.95,5.62-4.39,7.29.96,2.33,1.03,4.71.19,7.09-.96,2.73-2.76,4.69-5.37,5.84-.44,3.72-2.4,6.46-5.74,8-1.42.65-2.86.99-4.28.99h0c-1.73,0-3.4-.48-5-1.43-2.49,2.71-5.2,3.34-7.18,3.34Z"/>
            <path class="cls-9" d="M13.35,4.42c.42,0,.82.29,1.3.85,3.74,4.39,7.4,8.83,10.16,13.93.3.55.61,1.1,1.03,1.87,1.33-4.45,1.49-8.7.33-13.04,4.36,3.65,8.1,7.77,10.58,13.11,3.68-4.42,4.51-9.59,4.71-14.98,1.51,4.28,2.21,8.65,2.01,13.26-4.06.29-6.98,2.22-8.54,6.03-1.87-1.54-4-2.25-6.06-2.25-4.04,0-7.83,2.72-8.94,7.23-1.59-.84-3.18-1.28-4.76-1.28-1.73,0-3.45.53-5.17,1.63-2.49-1.76-4.18-4.16-5.57-7.17,3.49,2.34,7.18,2.87,11,2.96,1.17.03,2.32.35,3.75.58-4.44-3.56-8.25-7.36-9.43-12.74,1.82,1.4,3.7,3.01,5.74,4.38,2.1,1.41,4.58,1.9,7.31,2.37-.97-1.46-1.81-2.78-2.71-4.05-2.37-3.36-5.19-6.28-8.58-8.62-.69-.48-.86-1.03-.52-1.71.31-.62.67-1.26,1.17-1.73.46-.43.84-.65,1.2-.65M49.32,11.74c.12.03.24.06.35.09-.53,2.91-1.05,5.81-1.6,8.84-.9-.34-1.46-.58-2.03-.76-.54-.17-1.1-.27-1.84-.44,2.51-2.12,4.31-4.6,5.12-7.72M43.37,20.71c.11,0,.23,0,.34,0,4.16.15,6.88,2.98,7.59,7.92,3.2.02,5.76,1.29,7.29,4.18,1.51,2.84,1.18,5.65-.56,8.31,6.05,3.95,4.7,12.04-1.31,14.32,1.49,2.26,2.01,4.69,1.09,7.28-.9,2.57-2.72,4.2-5.4,5-.02,3.4-1.38,6.11-4.55,7.57-1.15.53-2.27.78-3.36.78-1.91,0-3.73-.79-5.44-2.26-1.74,2.63-3.98,4.16-6.75,4.16-.84,0-1.72-.14-2.66-.43-3.33-1.04-5.01-3.57-5.43-7.08-.24.01-.48.02-.71.02-2.51,0-4.7-.85-6.36-2.91-1.82-2.26-2.14-4.8-1.29-7.63-3.62-.46-6.23-2.27-7.18-5.85-.95-3.59.35-6.48,3.39-8.71-2.58-1.29-4.2-3.29-4.62-6.12-.32-2.17.24-4.14,1.57-5.9,1.28-1.7,3.57-3,6.13-3,1.88,0,3.9.7,5.8,2.44.08-4.04,1.87-6.85,5.77-8.09.75-.24,1.47-.36,2.17-.36,2.2,0,4.24,1.19,6.65,3.71,1.02-4.74,3.82-7.37,7.82-7.37M13.35,0c-1.5,0-2.92.62-4.22,1.84-1,.94-1.62,2.02-2.1,2.96-1.01,2-.81,4.16.41,5.85-.02.01-.05.03-.07.04-1.57,1-2.35,2.87-1.95,4.68.38,1.7.94,3.26,1.66,4.7-.07-.04-.13-.09-.2-.13-.75-.5-1.6-.75-2.46-.75-1.03,0-2.05.36-2.87,1.06-1.51,1.29-1.97,3.42-1.14,5.22,1.21,2.63,2.6,4.76,4.24,6.5-1.44,2.43-1.98,5.15-1.56,7.95.34,2.27,1.21,4.27,2.56,5.94-1.7,2.76-2.14,5.97-1.23,9.38.99,3.71,3.27,6.43,6.59,7.92.08,2.62.99,5.05,2.71,7.19,1.82,2.26,4.21,3.72,7,4.29,1.34,3.51,3.96,5.99,7.63,7.13,1.35.42,2.68.63,3.98.63,2.12,0,4.92-.57,7.59-2.86,1.48.64,3.02.96,4.6.96,1.74,0,3.49-.4,5.21-1.19,3.66-1.69,6.01-4.66,6.81-8.54,2.58-1.45,4.44-3.68,5.45-6.58.82-2.34.92-4.72.31-7.05,2.22-2,3.67-4.76,4.01-7.83.37-3.43-.68-6.71-2.89-9.3.96-3.09.66-6.29-.92-9.28-1.66-3.13-4.3-5.21-7.61-6.08-.55-1.61-1.32-3.01-2.28-4.19l1.42-7.87c.41-2.29-1.01-4.5-3.26-5.07l-.28-.07-.08-.02c-.36-.09-.73-.14-1.09-.14-.96,0-1.89.32-2.64.88-.3-1.17-.66-2.33-1.07-3.5-.63-1.79-2.32-2.95-4.17-2.95-.22,0-.45.02-.67.05-2.1.32-3.67,2.09-3.75,4.21-.07,2.02-.24,4.09-.7,6.08-2-2.55-4.41-5-7.33-7.44-.82-.68-1.83-1.03-2.84-1.03-.82,0-1.65.23-2.38.69-1,.64-1.67,1.62-1.93,2.72-1.27-1.59-2.57-3.13-3.85-4.63-1.36-1.59-2.93-2.4-4.66-2.4h0Z"/>
          </g>
          <g>
            <path class="cls-4" d="M38.67,105.77c-.79,0-1.53-.42-1.92-1.12L10.31,58.07c-.36-.64-.38-1.42-.06-2.08.33-.66.96-1.11,1.69-1.21l48.05-6.31c.1-.01.19-.02.29-.02.68,0,1.33.31,1.75.86.48.62.59,1.46.29,2.19l-21.62,52.89c-.32.78-1.06,1.32-1.9,1.37-.05,0-.09,0-.14,0Z"/>
            <path class="cls-9" d="M60.29,50.67h0M60.29,50.67l-21.62,52.89L12.23,56.98l48.05-6.31M60.29,46.25c-.05,0-.11,0-.16,0-.16,0-.33.02-.49.04l-47.98,6.3c-1.46.19-2.73,1.1-3.38,2.41-.66,1.32-.61,2.87.11,4.15l26.44,46.58c.79,1.39,2.26,2.24,3.84,2.24.09,0,.19,0,.28,0,1.69-.11,3.17-1.17,3.81-2.74l21.55-52.74c.25-.56.39-1.17.39-1.82,0-2.42-1.94-4.38-4.35-4.42-.02,0-.05,0-.07,0h0ZM60.29,55.09h0,0Z"/>
          </g>
          <g>
            <path class="cls-11" d="M38.67,104.7c-.41,0-.78-.22-.99-.57L11.24,57.55c-.19-.33-.2-.73-.03-1.07s.49-.57.87-.62l48.06-6.32s.1,0,.15,0c.35,0,.68.16.9.44.25.32.3.75.15,1.12l-21.62,52.9c-.16.4-.54.67-.98.7-.02,0-.05,0-.07,0Z"/>
            <path class="cls-12" d="M60.29,50.67l-8.28,20.25-13.34,32.64-20.65-36.38-5.79-10.19,48.06-6.32M60.29,48.4c-.1,0-.2,0-.3.02l-48.06,6.32c-.75.1-1.4.56-1.74,1.24-.34.68-.31,1.47.06,2.13l5.79,10.19,20.65,36.38c.4.71,1.16,1.15,1.97,1.15.05,0,.1,0,.15,0,.87-.06,1.63-.6,1.95-1.41l13.34-32.64,8.28-20.25c.31-.75.19-1.6-.3-2.24-.43-.56-1.1-.88-1.8-.88h0ZM60.29,52.93h0,0Z"/>
          </g>
          <path class="cls-5" d="M52.01,70.92l-13.35,32.64-20.65-36.38,3.29,3.06,17.36,29.21,11.86-29.55s.66.41,1.48,1.01Z"/>
          <g>
            <path class="cls-1" d="M32.33,78.72c-.92,0-1.89-.16-2.88-.47-3.27-1.02-5.23-3.38-5.85-7.02-.03,0-.05,0-.08,0-2.89,0-5.23-1.07-6.93-3.19-1.73-2.15-2.28-4.67-1.64-7.49-3.66-.7-6.06-2.85-6.97-6.26-.9-3.38.06-6.4,2.79-8.79-2.29-1.44-3.64-3.49-4.03-6.12-.35-2.32.23-4.5,1.71-6.45.4-.53.87-1.01,1.4-1.42-.1-.02-.19-.06-.28-.12-2.4-1.7-4.25-4.07-5.81-7.46-.14-.3-.06-.66.19-.87.14-.12.31-.18.48-.18.14,0,.29.04.41.12,3.53,2.37,7.34,2.76,10.61,2.84.38,0,.75.05,1.13.1-3.46-3.04-6.49-6.58-7.55-11.36-.07-.3.06-.61.33-.78.12-.08.26-.11.39-.11.16,0,.32.05.45.15.55.42,1.1.86,1.67,1.31,1.29,1.03,2.63,2.09,4.03,3.04,1.52,1.02,3.28,1.53,5.33,1.95-.59-.9-1.15-1.75-1.74-2.58-2.42-3.42-5.25-6.26-8.4-8.44-.99-.68-1.26-1.65-.76-2.65.34-.68.74-1.39,1.32-1.93.42-.39,1-.84,1.71-.84.81,0,1.42.59,1.86,1.11,3.64,4.27,7.44,8.87,10.25,14.06l.14.25c.86-3.75.81-7.32-.14-10.88-.08-.31.04-.64.32-.81.12-.08.26-.12.4-.12.17,0,.34.06.47.17,4.72,3.95,8,7.89,10.25,12.29,3.07-4.22,3.66-9.03,3.83-13.62.01-.35.28-.65.62-.7.04,0,.08,0,.11,0,.31,0,.59.19.69.49,1.47,4.15,2.15,8.26,2.08,12.54,2.28-2.05,3.71-4.32,4.39-6.91.09-.33.38-.55.71-.55.06,0,.12,0,.18.02l.35.09c.38.1.61.46.54.85l-1.6,8.84c-.04.22-.17.4-.36.51-.08.04-.17.07-.26.09,1.91,1.33,3.21,3.56,3.75,6.53,3.31.19,5.83,1.76,7.31,4.55,1.45,2.74,1.37,5.65-.22,8.45,2.61,1.97,3.96,4.91,3.62,8-.32,2.97-2.15,5.53-4.85,6.86,1.32,2.36,1.57,4.78.72,7.18-.91,2.59-2.71,4.37-5.37,5.3-.18,3.62-1.88,6.28-4.96,7.7-1.23.56-2.46.85-3.67.85h0c-1.82,0-3.6-.65-5.29-1.93-1.9,2.54-4.21,3.83-6.9,3.83ZM20.33,31.36c.01-.12.03-.23.05-.34-.05.04-.1.07-.17.1-.05.02-.11.04-.16.05.09.06.19.12.28.19ZM34.54,26.09c.21.18.41.36.62.56.06-.21.13-.41.2-.61-.08.06-.17.11-.27.13-.06.02-.12.02-.18.02-.13,0-.26-.04-.38-.1Z"/>
            <path class="cls-12" d="M13.35,4.42c.42,0,.82.29,1.3.85,3.74,4.39,7.4,8.83,10.16,13.93.3.55.61,1.1,1.03,1.87,1.33-4.45,1.49-8.7.33-13.04,4.36,3.65,8.1,7.77,10.58,13.11,3.68-4.42,4.51-9.59,4.71-14.98,1.51,4.28,2.21,8.65,2.01,13.26-4.06.29-6.98,2.22-8.54,6.03-1.87-1.54-4-2.25-6.06-2.25-4.04,0-7.83,2.72-8.94,7.23-1.59-.84-3.18-1.28-4.76-1.28-1.73,0-3.45.53-5.17,1.63-2.49-1.76-4.18-4.16-5.57-7.17,3.49,2.34,7.18,2.87,11,2.96,1.17.03,2.32.35,3.75.58-4.44-3.56-8.25-7.36-9.43-12.74,1.82,1.4,3.7,3.01,5.74,4.38,2.1,1.41,4.58,1.9,7.31,2.37-.97-1.46-1.81-2.78-2.71-4.05-2.37-3.36-5.19-6.28-8.58-8.62-.69-.48-.86-1.03-.52-1.71.31-.62.67-1.26,1.17-1.73.46-.43.84-.65,1.2-.65M49.32,11.74c.12.03.24.06.35.09-.53,2.91-1.05,5.81-1.6,8.84-.9-.34-1.46-.58-2.03-.76-.54-.17-1.1-.27-1.84-.44,2.51-2.12,4.31-4.6,5.12-7.72M43.37,20.71c.11,0,.23,0,.34,0,4.16.15,6.88,2.98,7.59,7.92,3.2.02,5.76,1.29,7.29,4.18,1.51,2.84,1.18,5.65-.56,8.31,6.05,3.95,4.7,12.04-1.31,14.32,1.49,2.26,2.01,4.69,1.09,7.28-.9,2.57-2.72,4.2-5.4,5-.02,3.4-1.38,6.11-4.55,7.57-1.15.53-2.27.78-3.36.78-1.91,0-3.73-.79-5.44-2.26-1.74,2.63-3.98,4.16-6.75,4.16-.84,0-1.72-.14-2.66-.43-3.33-1.04-5.01-3.57-5.43-7.08-.24.01-.48.02-.71.02-2.51,0-4.7-.85-6.36-2.91-1.82-2.26-2.14-4.8-1.29-7.63-3.62-.46-6.23-2.27-7.18-5.85-.95-3.59.35-6.48,3.39-8.71-2.58-1.29-4.2-3.29-4.62-6.12-.32-2.17.24-4.14,1.57-5.9,1.28-1.7,3.57-3,6.13-3,1.88,0,3.9.7,5.8,2.44.08-4.04,1.87-6.85,5.77-8.09.75-.24,1.47-.36,2.17-.36,2.2,0,4.24,1.19,6.65,3.71,1.02-4.74,3.82-7.37,7.82-7.37M13.35,2.95h0c-.98,0-1.73.6-2.21,1.04-.66.62-1.1,1.4-1.48,2.14-.68,1.34-.31,2.68,1,3.58,3.08,2.13,5.85,4.91,8.22,8.26.24.33.47.67.7,1.02-1.22-.34-2.31-.77-3.28-1.42-1.38-.92-2.7-1.98-3.98-3-.57-.45-1.12-.89-1.67-1.32-.26-.2-.58-.31-.9-.31-.27,0-.55.08-.79.23-.52.33-.78.96-.65,1.56.93,4.24,3.35,7.52,6.24,10.33-3.04-.13-6.24-.64-9.3-2.68-.25-.17-.53-.25-.82-.25-.34,0-.68.12-.96.35-.5.43-.66,1.14-.38,1.74,1.51,3.26,3.28,5.62,5.54,7.37-.28.28-.53.57-.77.88-1.6,2.12-2.22,4.48-1.85,7,.38,2.55,1.58,4.59,3.59,6.1-2.42,2.47-3.23,5.51-2.33,8.89.92,3.47,3.27,5.74,6.82,6.63-.45,2.76.19,5.24,1.92,7.39,1.74,2.17,4.09,3.33,6.98,3.45.78,3.56,2.92,5.97,6.24,7,1.06.33,2.11.5,3.1.5,2.68,0,5.09-1.23,7.04-3.56,1.65,1.1,3.37,1.66,5.15,1.66,1.31,0,2.65-.31,3.97-.92,3.21-1.48,5.05-4.18,5.36-7.84,2.63-1.05,4.43-2.92,5.36-5.58.84-2.39.7-4.78-.43-7.13,2.56-1.52,4.27-4.11,4.59-7.09.34-3.15-.92-6.15-3.41-8.27,1.43-2.86,1.42-5.81-.07-8.61-1.52-2.87-4.05-4.55-7.35-4.89-.55-2.51-1.64-4.5-3.17-5.86.07-.14.13-.29.16-.44l1.43-7.91.17-.93c.14-.76-.34-1.5-1.09-1.69l-.22-.06-.13-.03c-.12-.03-.24-.05-.36-.05-.66,0-1.25.44-1.43,1.1-.51,1.95-1.48,3.72-2.95,5.34-.12-3.74-.82-7.37-2.11-11.03-.21-.6-.77-.98-1.39-.98-.07,0-.15,0-.22.02-.7.11-1.22.7-1.25,1.4-.15,4.12-.65,8.4-3.02,12.22-2.26-4.06-5.44-7.74-9.85-11.43-.27-.23-.61-.34-.95-.34-.27,0-.55.08-.79.23-.54.35-.8,1-.63,1.62.75,2.81.92,5.63.5,8.56-2.73-4.63-6.16-8.78-9.47-12.66-.54-.64-1.31-1.37-2.42-1.37h0Z"/>
          </g>
          <path class="cls-10" d="M24.21,70.46c.45,3.5,2.11,6.05,5.46,7.13,4.01,1.21,7.13-.32,9.43-3.78,2.63,2.32,5.59,2.96,8.75,1.48,3.2-1.44,4.52-4.14,4.56-7.52,2.69-.85,4.49-2.47,5.38-5.04.94-2.61.41-5.03-1.06-7.27,5.98-2.28,7.32-10.37,1.26-14.33,1.78-2.63,2.11-5.49.61-8.31-1.55-2.87-4.13-4.15-7.34-4.17-.68-4.94-3.36-7.77-7.53-7.91-4.21-.18-7.12,2.49-8.14,7.35-3.18-3.33-5.75-4.31-8.87-3.32-3.89,1.18-5.69,4.06-5.73,8.07-4.5-4.13-9.77-2.39-11.95.59-1.34,1.7-1.9,3.66-1.56,5.86.42,2.83,1.99,4.83,4.61,6.15-3.05,2.24-4.34,5.07-3.39,8.7.95,3.54,3.58,5.4,7.18,5.87-.87,2.78-.52,5.35,1.28,7.62,1.84,2.22,4.25,3.03,7.06,2.86ZM17.31,51.73c.48,1.46-.35,3.03-1.76,3.47-1.42.52-3.03-.26-3.52-1.64-.52-1.5.31-3.15,1.81-3.59,1.41-.44,3.03.35,3.47,1.76ZM15.63,37.53c.48,1.46-.35,3.03-1.72,3.51-1.5.52-3.11-.35-3.59-1.81-.43-1.49.35-3.03,1.8-3.5,1.41-.44,3.03.35,3.5,1.8ZM34.02,57.47c-1.41.44-3.02-.43-3.46-1.84-.48-1.46.35-3.11,1.85-3.54,1.45-.4,3.02.43,3.42,1.88.48,1.46-.39,3.06-1.8,3.5ZM26.74,42.1c.52,1.42-.3,2.99-1.72,3.51-1.46.48-3.03-.26-3.55-1.68-.52-1.42.26-3.03,1.68-3.56,1.5-.52,3.11.27,3.59,1.73ZM30.08,30.81c.48,1.37-.3,2.99-1.67,3.47-1.5.52-3.11-.27-3.59-1.73-.48-1.46.35-3.03,1.76-3.47,1.42-.52,3.03.26,3.51,1.72ZM30.2,70.81c-.48-1.46.35-3.03,1.72-3.51,1.5-.52,3.15.31,3.59,1.81.44,1.41-.38,2.98-1.8,3.42-1.46.48-3.03-.35-3.51-1.72ZM20.91,64.74c-.13-.51-.14-.97-.02-1.38.16-.99.84-1.82,1.78-2.08,1.03-.34,2.05-.06,2.79.71.31.27.58.67.71,1.1.44,1.41-.3,2.99-1.76,3.47-1.42.52-3.07-.31-3.5-1.8Z"/>
          <path class="cls-6" d="M24.21,70.46c.45,3.5,2.11,6.05,5.46,7.13,4.01,1.21,7.13-.32,9.43-3.78,2.63,2.32,5.59,2.96,8.75,1.48,3.2-1.44,4.52-4.14,4.56-7.52,2.69-.85,4.49-2.47,5.38-5.04.94-2.61.41-5.03-1.06-7.27,5.98-2.28,7.32-10.37,1.26-14.33,1.78-2.63,2.11-5.49.61-8.31-1.55-2.87-4.13-4.15-7.34-4.17-.68-4.94-3.36-7.77-7.53-7.91-4.21-.18-7.12,2.49-8.14,7.35,0,0,5.26.05,8.05,3.72,2.78,3.76-.13,8.06-.13,8.06,0,0,5.06,3.34,2.98,7.78-2.04,4.41-6.8,3.77-6.8,3.77,0,0,1.66,6.52-2.76,9.7-4.5,3.18-9.3-1.47-9.3-1.47,0,0-.8,1.24-2.18,2.35-1.02.8-2.45,1.49-4.07,1.42-.17-.01-.33-.02-.5-.04-3.4-.42-5.02-3.38-5.02-3.38-.87,2.78-.52,5.35,1.28,7.62,1.84,2.22,4.25,3.03,7.06,2.86Z"/>
          <path class="cls-3" d="M9.97,30.8c.22-.11.35-.23.57-.33,3.1-1.82,6.18-1.68,9.41-.02,1.67-6.82,9.43-9.55,14.95-4.97,1.53-3.73,4.34-5.62,8.21-6,.13-.03.21-.03.34-.06.21-4.62-.51-8.98-2-13.23-.05,1.29-.1,2.5-.27,3.74-.46,3.98-1.62,7.86-4.41,11.21-2.49-5.32-6.24-9.48-10.62-13.1,1.09,3.97,1.05,7.89-.03,11.87v.08c-.08.37-.19.78-.3,1.11-.23-.35-.33-.65-.51-.96,0,0-.12-.13-.23-.35-.06-.26-.18-.39-.29-.61-2.76-5.09-6.41-9.5-10.14-13.91-.89-1.03-1.46-1.15-2.49-.18-.49.42-.87,1.06-1.17,1.71-.34.6-.21,1.11.31,1.53.04.04.12.13.24.18,3.34,2.33,6.18,5.26,8.52,8.61.95,1.28,1.77,2.6,2.71,4.04-.66-.13-1.36-.22-2.02-.36,0,0-.37-.07-.95-.19-1.52-.4-2.98-.93-4.3-1.82-2.03-1.36-3.96-2.96-5.74-4.39,1.06,4.93,4.31,8.51,8.29,11.85.08,0,.12.05.12.05.27.31.67.59.98.87-1.4-.27-2.59-.57-3.72-.61h-.08c-.21.02-.75.02-1.55,0-3.28-.28-6.41-.93-9.4-2.94,1.41,2.99,3.12,5.41,5.58,7.18Z"/>
          <path class="cls-2" d="M44.2,19.47c.74.14,1.32.26,1.85.43.49.2,1.02.37,1.71.63l.04.04c.08,0,.17.01.29.06.55-2.97,1.06-5.9,1.6-8.78-.12-.05-.24-.1-.33-.11-.3,1.27-.8,2.41-1.46,3.45-.91,1.65-2.14,3.02-3.7,4.29Z"/>
          <path class="cls-8" d="M47.75,20.52l.04.04c.08,0,.17.01.29.06.55-2.97,1.06-5.9,1.6-8.78-.12-.05-.24-.1-.33-.11-.3,1.27-.8,2.41-1.46,3.45-.04,2.21-.07,4.42-.14,5.34Z"/>
          <path class="cls-8" d="M43.11,19.47c.13-.03.21-.03.34-.06.21-4.62-.51-8.98-2-13.23-.05,1.29-.1,2.5-.27,3.74.92,3.41,1.65,7.77,1.94,9.54Z"/>
          <path class="cls-8" d="M26.11,19.9c2.36-3.76,1.1-9.37,2.21-8.53,1.06.87,8.44,9.77,8.44,9.77-2.49-5.32-6.24-9.48-10.62-13.1,1.09,3.97,1.05,7.89-.03,11.87Z"/>
          <path class="cls-8" d="M11.28,8.33c.3-.73,1.34-2.95,2.82-1.97,1.56.99,9.37,11.38,10.97,13.42-.06-.26-.18-.39-.29-.61-2.76-5.09-6.41-9.5-10.14-13.91-.89-1.03-1.46-1.15-2.49-.18-.49.42-.87,1.06-1.17,1.71-.34.6-.21,1.11.31,1.53Z"/>
          <path class="cls-8" d="M18.04,26.25c.08,0,.12.05.12.05-2.86-2.59-9.36-12.09-6.22-9.27,2.35,2.09,6.12,3.21,7.85,3.58-1.52-.4-2.98-.93-4.3-1.82-2.03-1.36-3.96-2.96-5.74-4.39,1.06,4.93,4.31,8.51,8.29,11.85Z"/>
          <path class="cls-8" d="M9.97,30.8c.22-.11.35-.23.57-.33-2.18-2.17-3.63-4.65-3.63-4.65,1.33.64,4.84.73,6.88.75-3.28-.28-6.41-.93-9.4-2.94,1.41,2.99,3.12,5.41,5.58,7.18Z"/>
          <g class="cls-7">
            <path class="cls-9" d="M43.33,21.68h0c.12,0,.24,0,.37,0,4.67.15,6.17,3.93,6.61,7.07.07.47.47.83.95.83,3.02.02,5.21,1.26,6.5,3.66,1.29,2.41,1.1,4.88-.56,7.32-.14.21-.2.48-.15.73.05.25.2.48.42.62,2.49,1.62,3.75,4.11,3.46,6.81-.28,2.62-2.02,4.85-4.54,5.81-.27.1-.48.33-.57.6s-.05.58.11.82c1.42,2.17,1.73,4.26.95,6.42-.79,2.25-2.3,3.66-4.76,4.44-.4.13-.67.49-.67.91-.04,3.29-1.34,5.46-4.01,6.66-1,.47-1.99.71-2.95.71-1.63,0-3.23-.68-4.75-2.03-.18-.16-.4-.24-.64-.24-.04,0-.08,0-.13,0-.28.04-.52.19-.68.42-1.66,2.5-3.68,3.76-6.01,3.76-.74,0-1.52-.12-2.32-.36-2.79-.9-4.36-2.97-4.8-6.33-.06-.48-.47-.84-.95-.84-.02,0-.04,0-.06,0-.22.01-.44.02-.66.02-2.36,0-4.19-.83-5.59-2.51-1.56-1.96-1.92-4.16-1.12-6.73.09-.27.05-.57-.11-.81-.15-.24-.4-.4-.69-.44-3.43-.45-5.57-2.19-6.37-5.16-.81-3.11.15-5.55,3.03-7.68.27-.2.42-.52.39-.86-.03-.33-.23-.63-.53-.78-2.39-1.2-3.72-2.98-4.09-5.43-.29-1.88.17-3.6,1.38-5.15,1.19-1.63,3.25-2.64,5.36-2.64,1.82,0,3.61.76,5.17,2.19.18.17.41.25.65.25.13,0,.26-.03.38-.08.35-.15.58-.49.58-.87.04-3.74,1.74-6.15,5.06-7.16.68-.21,1.31-.32,1.92-.32,1.88,0,3.72,1.05,5.96,3.39.18.19.44.3.7.3.09,0,.18-.01.26-.04.34-.1.6-.38.68-.73.9-4.25,3.31-6.59,6.8-6.59M43.33,20.72c-3.99,0-6.75,2.65-7.74,7.35-2.41-2.51-4.46-3.69-6.66-3.69-.71,0-1.44.12-2.21.36-3.89,1.18-5.69,4.06-5.73,8.07-1.9-1.74-3.94-2.44-5.82-2.44-2.58,0-4.87,1.31-6.14,3.03-1.34,1.7-1.9,3.66-1.56,5.86.42,2.83,1.99,4.83,4.61,6.15-3.05,2.24-4.34,5.07-3.39,8.7.95,3.54,3.58,5.4,7.18,5.87-.87,2.78-.52,5.35,1.28,7.62,1.69,2.03,3.84,2.88,6.35,2.88.24,0,.47,0,.72-.02.45,3.5,2.11,6.05,5.46,7.13.92.28,1.79.41,2.61.41,2.78,0,5.04-1.52,6.82-4.19,1.67,1.48,3.48,2.27,5.39,2.27,1.09,0,2.21-.26,3.36-.8,3.2-1.44,4.52-4.14,4.56-7.52,2.69-.85,4.49-2.47,5.38-5.04.94-2.61.41-5.03-1.06-7.27,5.98-2.28,7.32-10.37,1.26-14.33,1.78-2.63,2.11-5.49.61-8.31-1.55-2.87-4.13-4.15-7.34-4.17-.68-4.94-3.36-7.77-7.53-7.91-.13,0-.27,0-.4,0h0Z"/>
          </g>
        </g>
      </g>
    </g>
  </g>
</svg>